# xmcd
#
# Track frame offsets:
#	150
#	15968
#	28547
#	46491
#	62959
#	77880
#	91487
#	106087
#	121024
#	136594
#	149142
#	160777
#	174897
#	190911
#	206574
#	228032
#	242841
#	260120
#	273927
#	292866
#	308317
#	319108
#	337876
#
# Disc length: 4682 seconds
#
# Revision: 1
# Processed by: cddbd v1.5.2PL0 Copyright (c) Steve Scherf et al.
# Submitted via: audiograbber 1.83.01
#
DISCID=2e124817
DTITLE=Various Artist - CDX 427
DYEAR=2007
DGENRE=Country
TTITLE0=Josh Turner - Firecracker
TTITLE1=Mark Chesnutt - Rollin' with the flow
TTITLE2=Rascal Flatts - Take me there
TTITLE3=Gary Allan - Watching airplanes
TTITLE4=Montgomery Gentry - What do you think about that
TTITLE5=Chris Cagle - What kinda gone
TTITLE6=Emerson Drive - You still own me
TTITLE7=Leslie Satcher - Texas Rubie
TTITLE8=Tommy Lee Snyder - Touchdown Jesus
TTITLE9=Julie Ingram - Anything anywhere
TTITLE10=Dick Barnes - Booze it and lose it
TTITLE11=Johnny Napp and Ray Benson - Bud's a little wiser
TTITLE12=Mike Manuel - Granny's song
TTITLE13=Jeff Griffith - I'm your radio
TTITLE14=Rick Roark - Remember me
TTITLE15=Justin Honaman - Saturday in the South
TTITLE16=Billy Pierson - She left me (holding the bottle)
TTITLE17=Jonalee White - Sunday paper
TTITLE18=Danny Davis - Double D - The great American Eagle
TTITLE19=Melissa Jones - Who do you think I am
TTITLE20=The Derailers - Who's gonna mow your grass
TTITLE21=David Lavender - 27 miles
TTITLE22=Fatboy - Illegals
EXTD=
EXTT0=
EXTT1=
EXTT2=
EXTT3=
EXTT4=
EXTT5=
EXTT6=
EXTT7=
EXTT8=
EXTT9=
EXTT10=
EXTT11=
EXTT12=
EXTT13=
EXTT14=
EXTT15=
EXTT16=
EXTT17=
EXTT18=
EXTT19=
EXTT20=
EXTT21=
EXTT22=
PLAYORDER=
